<svg version="1.0" xmlns="http://www.w3.org/2000/svg" viewBox="0 0 512 512"><g transform="translate(0.000000,512.000000) scale(0.100000,-0.100000)"><path d="M2365 5114c-360-26-605-75-850-169-513-197-878-564-1069-1078-87-234-146-561-146-813v-93l-43-30c-94-64-165-175-187-290-13-70-13-547 0-631 26-165 143-3e2 310-356 46-15 88-18 251-19h197l12-35c7-19 28-68 46-109l34-73-20-92c-38-171-55-210-118-264-1e2-86-254-179-357-217-27-10-54-22-59-26-14-13 94-40 182-46 45-3 85-9 87-13 8-13-115-138-196-2e2-75-56-267-160-296-160-27 0-11-20 59-73C396 179 630 78 895 28c168-31 474-31 648 0 213 39 363 89 550 182l118 59 87-22c126-31 398-31 524 0l87 22 118-59c187-93 337-143 550-182 174-31 480-31 648 0 198 37 407 115 560 207 68 41 205 144 205 154 0 3-31 18-68 33-143 59-302 171-391 276l-43 52h89c84 0 173 15 238 40 29 11 29 11-50 43-161 66-337 187-453 313-69 75-70 75-90 174l-21 98 33 74c18 40 39 89 46 108l12 35h197c163 1 205 4 251 19 167 56 284 191 310 356 13 84 13 561 0 631-22 115-93 226-187 290l-43 30v93c0 338-88 722-232 1011-295 592-839 937-1622 1031-118 14-501 26-601 18zm540-279c383-42 677-139 940-310 426-276 669-765 709-1422l6-93h-85c-80 0-85 1-90 23-2 12-14 67-25 123-81 412-245 740-495 990-328 328-731 475-1305 475-574 0-977-147-1305-475-250-250-414-578-495-990-11-56-23-111-25-123-5-22-10-23-90-23h-85l6 93c40 657 283 1146 709 1422 259 169 558 268 930 310 156 18 542 18 7e2.0zm-984-1217c88-121 149-187 247-267 196-160 237-181 607-308 182-62 276-101 459-191 4-2 5 6 1 19-17 59-55 129-1e2 183l-48 59 64-7c113-12 352-64 465-101 142-46 353-150 429-212l60-49 8-99c11-136 1-429-18-545-69-415-255-780-549-1074-257-258-570-436-853-486-302-54-689 99-1043 410-93 82-260 273-304 348-6 11-2 10 20-1 131-67 425-136 650-153l91-6 42-49c154-178 502-198 694-38 93 77 123 198 73 297-119 235-565 273-757 65l-41-45-62 7c-435 45-719 155-907 352-37 39-50 62-67 123-56 196-86 432-80 640l3 114 35 9c193 50 327 121 460 243 185 172 326 462 345 711 7 82 13 123 19 123 2 0 28-33 57-72z"/><path d="M1838 2667c-109-35-178-130-178-246 0-81 25-136 87-191 52-45 94-60 173-60 227 1 331 296 157 445-66 57-159 77-239 52z"/><path d="M3130 2665c-178-55-233-291-99-424 64-64 164-88 260-61 49 14 122 80 148 133 50 103 14 245-78 312-73 54-146 66-231 40z"/></g></svg>